<svg width="1200" height="700" viewBox="0 0 1200 700" fill="none" xmlns="http://www.w3.org/2000/svg">
  <rect width="1200" height="700" fill="#F4EFE6"/>
  <rect x="50" y="40" width="1100" height="620" rx="28" fill="#FFF9F2" stroke="#E7D8C7"/>
  <rect x="90" y="90" width="220" height="30" rx="10" fill="#C2410C" fill-opacity="0.12"/>
  <rect x="90" y="145" width="510" height="54" rx="14" fill="#2F241C" fill-opacity="0.08"/>
  <rect x="90" y="230" width="220" height="110" rx="24" fill="#FFFFFF" stroke="#E7D8C7"/>
  <rect x="330" y="230" width="220" height="110" rx="24" fill="#FFFFFF" stroke="#E7D8C7"/>
  <rect x="570" y="230" width="220" height="110" rx="24" fill="#FFFFFF" stroke="#E7D8C7"/>
  <rect x="810" y="230" width="220" height="110" rx="24" fill="#FFFFFF" stroke="#E7D8C7"/>
  <rect x="90" y="380" width="620" height="230" rx="28" fill="#FFFFFF" stroke="#E7D8C7"/>
  <rect x="740" y="380" width="290" height="230" rx="28" fill="#FFFFFF" stroke="#E7D8C7"/>
  <path d="M130 540C210 500 260 470 330 490C390 505 440 435 520 430C590 425 640 455 680 440" stroke="#0F766E" stroke-width="10" stroke-linecap="round"/>
  <circle cx="280" cy="505" r="56" fill="#F97316" fill-opacity="0.18"/>
  <circle cx="280" cy="505" r="34" fill="#F97316"/>
  <text x="90" y="640" fill="#7C6A58" font-family="Arial, sans-serif" font-size="34">Dashboard Preview Placeholder</text>
</svg>
