<svg width="1200" height="700" viewBox="0 0 1200 700" fill="none" xmlns="http://www.w3.org/2000/svg">
  <rect width="1200" height="700" fill="#F4EFE6"/>
  <rect x="50" y="40" width="1100" height="620" rx="28" fill="#FFF9F2" stroke="#E7D8C7"/>
  <rect x="90" y="90" width="230" height="30" rx="10" fill="#0F766E" fill-opacity="0.12"/>
  <rect x="90" y="145" width="360" height="54" rx="14" fill="#2F241C" fill-opacity="0.08"/>
  <rect x="835" y="135" width="185" height="48" rx="18" fill="#C2410C"/>
  <rect x="90" y="240" width="235" height="100" rx="24" fill="#FFFFFF" stroke="#E7D8C7"/>
  <rect x="345" y="240" width="235" height="100" rx="24" fill="#FFFFFF" stroke="#E7D8C7"/>
  <rect x="600" y="240" width="235" height="100" rx="24" fill="#FFFFFF" stroke="#E7D8C7"/>
  <rect x="855" y="240" width="165" height="100" rx="24" fill="#FFFFFF" stroke="#E7D8C7"/>
  <rect x="90" y="380" width="620" height="230" rx="28" fill="#FFFFFF" stroke="#E7D8C7"/>
  <rect x="740" y="380" width="280" height="230" rx="28" fill="#FFFFFF" stroke="#E7D8C7"/>
  <rect x="125" y="425" width="550" height="24" rx="10" fill="#EEE2D4"/>
  <rect x="125" y="475" width="550" height="24" rx="10" fill="#EEE2D4"/>
  <rect x="125" y="525" width="550" height="24" rx="10" fill="#EEE2D4"/>
  <rect x="125" y="575" width="420" height="24" rx="10" fill="#EEE2D4"/>
  <rect x="790" y="430" width="180" height="36" rx="14" fill="#0F766E" fill-opacity="0.15"/>
  <rect x="790" y="490" width="180" height="36" rx="14" fill="#F97316" fill-opacity="0.15"/>
  <rect x="790" y="550" width="180" height="36" rx="14" fill="#2563EB" fill-opacity="0.15"/>
  <text x="90" y="640" fill="#7C6A58" font-family="Arial, sans-serif" font-size="34">Portfolio Detail Placeholder</text>
</svg>
